<svg width="72" height="82" viewBox="0 0 72 82" fill="none" xmlns="http://www.w3.org/2000/svg">
<path d="M48.3217 82H23.6818C22.675 81.3978 22.348 80.7871 22.5767 79.9479C22.7883 79.1791 23.4296 78.8011 24.539 78.799C25.595 78.799 26.6509 78.799 27.7411 78.799C28.2905 75.8094 28.8248 72.9138 29.3785 69.8986C28.9424 69.8986 28.6303 69.8986 28.3182 69.8986C22.0017 69.8986 15.6852 69.9029 9.36862 69.8922C8.62474 69.8922 7.8659 69.873 7.1434 69.7235C2.83405 68.8416 0.0124479 65.3267 0.00817275 60.8444C-0.00251513 49.7467 0.00176002 38.6489 0.00603518 27.5511C0.00603518 22.0247 3.76603 18.2664 9.28953 18.2578C10.027 18.2578 10.7623 18.2578 11.5532 18.2578C11.5532 17.8371 11.5532 17.5211 11.5532 17.2051C11.5532 13.1499 11.5425 9.09474 11.5575 5.03958C11.5661 2.60307 12.8935 0.834948 15.1657 0.158021C15.2876 0.121719 15.4009 0.0533854 15.5184 0C29.1733 0 42.826 0 56.4808 0C59.6829 1.3026 60.4482 2.46 60.4482 6.00052C60.4482 9.78875 60.4482 13.577 60.4482 17.3652C60.4482 17.6449 60.4482 17.9268 60.4482 18.2578C61.3353 18.2578 62.1026 18.2557 62.8722 18.2578C68.1947 18.2813 71.9889 22.0674 71.9932 27.391C72.0018 38.5144 71.9996 49.6399 71.9868 60.7633C71.9868 61.5299 71.9227 62.3157 71.7474 63.061C70.7727 67.2251 67.3247 69.8794 62.8743 69.8901C56.4787 69.9071 50.0809 69.8943 43.6853 69.8943C43.3732 69.8943 43.0611 69.8943 42.6229 69.8943C43.1829 72.9309 43.7216 75.8479 44.2646 78.7947C45.5193 78.7947 46.6907 78.7712 47.86 78.8011C48.9031 78.8268 49.5486 79.5848 49.4631 80.5778C49.4012 81.3188 48.886 81.6733 48.3195 81.9936L48.3217 82ZM14.8023 11.5099V58.3011H57.1884V11.5099H14.8023ZM68.7291 61.6559H3.21668C3.31714 62.0872 3.37272 62.4268 3.47532 62.7556C4.24057 65.2199 6.34181 66.6912 9.1399 66.6933C27.0528 66.6976 44.9657 66.6955 62.8786 66.6933C63.118 66.6933 63.3574 66.6848 63.5968 66.6656C66.3244 66.4648 68.3999 64.464 68.7291 61.6559ZM11.4912 58.3246V29.8489H3.24874V58.3246H11.4912ZM68.7441 58.3182V29.8424H60.493V58.3182H68.7441ZM14.7767 8.17865H57.1884C57.2183 8.04839 57.2397 7.995 57.2397 7.94375C57.2439 7.08958 57.2503 6.23755 57.2482 5.38339C57.2461 3.71562 56.7245 3.20312 55.0337 3.20312C42.3493 3.20312 29.6649 3.20312 16.9805 3.20312C16.7668 3.20312 16.553 3.19458 16.3414 3.20953C15.4885 3.27146 14.8451 3.80104 14.7938 4.65307C14.7254 5.81474 14.7767 6.98495 14.7767 8.17865ZM41.0005 78.7627C40.4746 75.9055 39.9702 73.1295 39.4336 70.3598C39.3994 70.1805 39.1087 69.9221 38.9356 69.9199C36.86 69.8901 34.7844 69.9007 32.6426 69.9007C32.0932 72.8711 31.5524 75.7923 31.0009 78.7648H41.0026L41.0005 78.7627ZM11.4934 26.5603V21.5165C6.57053 21.0552 3.2979 23.0817 3.31928 26.5603H11.4934ZM60.4845 26.5539H68.7099C68.5859 24.2348 66.8587 22.1037 64.5544 21.6638C63.242 21.414 61.8718 21.4716 60.4866 21.3883V26.5539H60.4845Z" fill="white"/>
<path d="M16.7713 38.5015C16.7713 34.314 16.7691 30.1264 16.7713 25.9389C16.7734 23.2632 18.2569 21.7748 20.916 21.7706C23.2075 21.7663 25.499 21.762 27.7905 21.7706C30.1504 21.7812 31.7365 23.2867 31.7429 25.6527C31.7685 34.2414 31.7685 42.83 31.7429 51.4187C31.7365 53.7869 30.1675 55.2881 27.7969 55.303C25.4263 55.318 23.0536 55.3222 20.683 55.303C18.3189 55.2838 16.782 53.7484 16.7756 51.3845C16.7606 47.0902 16.7713 42.7959 16.7713 38.5015ZM28.5579 38.6019C28.5579 34.4165 28.5515 30.2289 28.5643 26.0435C28.5664 25.3517 28.4339 24.9438 27.5981 24.9587C25.3622 24.9993 23.122 24.9908 20.8861 24.963C20.1807 24.9545 19.9605 25.2385 19.9627 25.9154C19.9755 34.3418 19.9776 42.7681 19.9627 51.1923C19.9627 51.9034 20.247 52.1212 20.916 52.1148C23.0729 52.0913 25.2318 52.1084 27.3886 52.1063C28.4895 52.1063 28.5557 52.038 28.5579 50.9233C28.56 46.8169 28.5579 42.7105 28.5579 38.604V38.6019Z" fill="#1777E5"/>
<path d="M44.7907 21.7705C46.9218 21.7705 49.0551 21.762 51.1863 21.7727C53.4949 21.7855 55.0638 23.3016 55.0938 25.6143C55.1301 28.307 55.128 31.0019 55.0938 33.6968C55.066 35.9774 53.5633 37.5256 51.2739 37.5491C46.9304 37.5961 42.5868 37.5982 38.2433 37.5491C35.8941 37.5235 34.4084 35.9112 34.402 33.5452C34.3956 30.9571 34.3956 28.3711 34.402 25.783C34.4084 23.3401 35.9582 21.7812 38.3929 21.7705C40.524 21.762 42.6574 21.7705 44.7885 21.7705H44.7907ZM37.602 29.3406C38.3052 28.7661 38.861 28.2814 39.4488 27.8372C40.8874 26.746 42.6873 26.7631 44.1024 27.8757C44.6047 28.2707 45.122 28.6594 45.5645 29.1164C46.1437 29.7143 46.6161 29.6395 47.1847 29.0993C48.4331 27.9077 49.8759 27.6878 51.462 28.3561C51.5775 28.4053 51.7014 28.4309 51.9024 28.4928C51.9024 27.5041 51.9066 26.5731 51.9024 25.6442C51.8981 25.1295 51.5967 24.9672 51.12 24.9694C46.8855 24.9758 42.6509 24.9758 38.4164 24.9694C37.8393 24.9694 37.5956 25.2192 37.6041 25.7894C37.6191 26.9083 37.6084 28.0273 37.6084 29.3406H37.602ZM44.7201 34.3631C46.7957 34.3631 48.8734 34.3823 50.949 34.3439C51.2568 34.3374 51.804 34.0855 51.819 33.9104C51.8703 33.3039 52.2358 32.5907 51.5069 32.0953C50.4396 31.3706 49.5731 31.2781 48.9076 31.8177C47.2745 33.148 45.4362 33.148 43.8138 31.8155C43.3606 31.444 42.8968 31.0831 42.4799 30.6731C41.9883 30.1905 41.5736 30.1691 41.0435 30.6453C40.1136 31.4803 39.1154 32.2405 38.1791 33.0711C37.9354 33.2868 37.8136 33.6434 37.6362 33.9339C37.9739 34.0769 38.3095 34.3396 38.6515 34.346C40.6737 34.3844 42.698 34.3652 44.7201 34.3652V34.3631Z" fill="#1777E5"/>
<path d="M44.7478 55.3073C42.6423 55.3073 40.5368 55.3159 38.4334 55.3052C35.9346 55.2924 34.4083 53.7527 34.4019 51.2543C34.3976 48.6683 34.3934 46.0802 34.4019 43.4942C34.4105 41.141 35.9474 39.5522 38.2837 39.5415C42.5995 39.5181 46.9174 39.5181 51.2332 39.5415C53.5118 39.5544 55.0573 41.0748 55.0894 43.349C55.1279 46.0695 55.1279 48.79 55.0894 51.5106C55.0552 53.7826 53.5033 55.2838 51.2204 55.3052C49.0614 55.3265 46.9046 55.3095 44.7456 55.3116L44.7478 55.3073ZM49.7583 52.1063C50.1901 52.1063 50.5086 52.1063 50.8271 52.1063C51.8232 52.0978 51.9023 52.0231 51.9023 50.9938C51.9065 48.5658 51.8873 46.1357 51.9129 43.7077C51.9215 42.9881 51.6607 42.719 50.9297 42.7233C46.8234 42.7468 42.7171 42.7468 38.6129 42.7233C37.852 42.719 37.5741 42.9838 37.5869 43.7505C37.6211 45.9649 37.5997 48.1793 37.5997 50.3959C37.5997 52.2067 37.6232 52.2281 39.4359 52.0957C39.5107 52.0893 39.5834 52.0529 39.7373 52.006C39.7993 50.319 39.5107 48.5359 40.8595 47.1159C42.2254 45.6766 43.9633 45.7748 45.7011 45.8197C46.7229 45.8453 47.6164 46.2062 48.3945 46.881C49.9977 48.2754 49.7604 50.1759 49.7583 52.1063ZM46.554 52.0764C46.554 51.3184 46.5754 50.6308 46.5476 49.9453C46.522 49.3388 46.1372 48.963 45.5622 49.0377C44.6922 49.1531 43.4845 48.4548 43.0505 49.7189C42.8111 50.4172 43.0078 51.2671 43.0078 52.0764H46.5562H46.554Z" fill="#1777E5"/>
<path d="M39.1218 18.828C34.4576 18.828 29.7934 18.8323 25.1292 18.8259C23.9044 18.8259 23.2182 18.2664 23.1819 17.2927C23.1519 16.4577 23.6885 15.7915 24.5157 15.6719C24.8299 15.627 25.1527 15.6292 25.4733 15.6292C34.5901 15.6292 43.7047 15.6292 52.8215 15.6292C53.14 15.6292 53.4649 15.6292 53.777 15.6761C54.5401 15.7936 55.0595 16.3958 55.0873 17.1581C55.1173 17.9653 54.6213 18.6209 53.8304 18.7661C53.4927 18.828 53.1421 18.8259 52.7958 18.8259C48.2385 18.8302 43.6791 18.828 39.1218 18.8259V18.828Z" fill="#1777E5"/>
<path d="M16.7798 17.2243C16.7798 16.336 17.4553 15.6527 18.3402 15.6441C19.2166 15.6356 19.9348 16.321 19.9605 17.1838C19.9862 18.0678 19.2359 18.8216 18.3402 18.8109C17.4659 18.8003 16.7798 18.1041 16.7798 17.2222V17.2243Z" fill="#1777E5"/>
<path d="M53.0589 4.15131C53.4309 4.15131 53.8071 4.12355 54.1769 4.15771C54.9699 4.22818 55.5577 4.84105 55.6197 5.61834C55.6774 6.35292 55.2179 7.12808 54.4654 7.2199C53.4993 7.33522 52.4989 7.34162 51.5327 7.22631C50.7354 7.13021 50.3079 6.37214 50.3805 5.55855C50.4489 4.78126 51.0346 4.2111 51.8597 4.15344C52.2573 4.12568 52.6592 4.14917 53.0589 4.14917V4.15344V4.15131Z" fill="#1777E5"/>
<path d="M24.2122 35.0699C23.6008 35.0699 22.9895 35.0955 22.3803 35.0635C21.4804 35.0144 20.8156 34.314 20.8198 33.4662C20.8241 32.6184 21.4889 31.9095 22.3931 31.8839C23.6393 31.8497 24.8898 31.8476 26.136 31.8839C27.053 31.9116 27.6879 32.6056 27.6836 33.4769C27.6793 34.346 27.0402 35.0165 26.1232 35.0614C25.4883 35.0934 24.8492 35.0678 24.2122 35.0678V35.0699Z" fill="#1777E5"/>
<path d="M24.3168 42.6037C24.8747 42.6037 25.4326 42.5909 25.9905 42.6059C27.0165 42.6358 27.6941 43.2913 27.6835 44.2224C27.6728 45.1193 27.008 45.777 26.029 45.7962C24.8341 45.8197 23.6392 45.8218 22.4443 45.7962C21.4952 45.7727 20.8047 45.0595 20.8176 44.184C20.8304 43.3063 21.523 42.6507 22.4849 42.6059C22.5383 42.6037 22.5917 42.6059 22.6452 42.6059C23.2031 42.6059 23.761 42.6059 24.3189 42.6059L24.3168 42.6037Z" fill="#1777E5"/>
<path d="M24.3085 26.5261C24.922 26.5261 25.5355 26.4984 26.1468 26.5325C27.0489 26.5838 27.6602 27.2159 27.6837 28.0594C27.7072 28.9071 27.1386 29.6204 26.2409 29.6673C24.9391 29.7335 23.6287 29.7335 22.327 29.6759C21.395 29.6353 20.7772 28.89 20.82 28.038C20.8606 27.2031 21.4869 26.5987 22.3889 26.5261C22.4424 26.5219 22.4958 26.5197 22.5493 26.5197C23.135 26.5197 23.7228 26.5197 24.3085 26.5197C24.3085 26.5219 24.3085 26.524 24.3085 26.5261Z" fill="#1777E5"/>
<path d="M24.2121 40.4277C23.5986 40.4277 22.983 40.4662 22.3738 40.4192C21.429 40.3445 20.8027 39.6718 20.8176 38.8155C20.8305 37.9549 21.4803 37.2887 22.4208 37.2631C23.6457 37.2289 24.8748 37.2289 26.0996 37.2631C27.0444 37.2887 27.6771 37.9507 27.6857 38.824C27.6942 39.6718 27.1149 40.2975 26.2108 40.4192C26.1317 40.4299 26.0526 40.4427 25.9713 40.4427C25.3856 40.4427 24.7978 40.4427 24.2121 40.4427C24.2121 40.4384 24.2121 40.432 24.2121 40.4277Z" fill="#1777E5"/>
<path d="M24.287 47.9849C24.9005 47.9849 25.5139 47.9593 26.1253 47.9913C27.0316 48.0404 27.6494 48.6576 27.6814 49.4989C27.7178 50.3766 27.1257 51.092 26.1809 51.1368C24.9047 51.1966 23.6222 51.1966 22.3461 51.1389C21.4077 51.0962 20.7878 50.3723 20.8177 49.5182C20.8476 48.6576 21.4953 48.0298 22.4465 47.9892C23.0579 47.9614 23.6735 47.9849 24.2848 47.9871L24.287 47.9849Z" fill="#1777E5"/>
</svg>
