<svg width="29" height="32" viewBox="0 0 29 32" fill="none" xmlns="http://www.w3.org/2000/svg">
<path d="M28.3774 9.65417C28.3771 9.1362 28.2657 8.6785 28.0405 8.28579C27.8192 7.89941 27.4878 7.57565 27.0433 7.31967C23.3741 5.21573 19.7013 3.11823 16.0333 1.01214C15.0444 0.444415 14.0856 0.465219 13.104 1.0411C11.6436 1.89751 4.33157 6.06346 2.15269 7.31849C1.25536 7.83517 0.818726 8.62574 0.81851 9.65321C0.817108 13.8844 0.81851 18.1155 0.817108 22.3466C0.817108 22.8532 0.923976 23.3022 1.13933 23.689C1.36072 24.0869 1.69675 24.4196 2.1515 24.6814C4.33049 25.9364 11.6435 30.102 13.1036 30.9588C14.0856 31.535 15.0444 31.5555 16.0336 30.9877C19.7017 28.8815 23.3747 26.784 27.0445 24.6801C27.4992 24.4184 27.8352 24.0855 28.0566 23.6879C28.2717 23.301 28.3788 22.8522 28.3788 22.3455C28.3788 22.3455 28.3788 13.8854 28.3774 9.65417Z" fill="#A179DC"/>
<path d="M14.6401 15.9587L1.13934 23.689C1.36073 24.0869 1.69675 24.4196 2.15151 24.6814C4.3305 25.9364 11.6435 30.102 13.1036 30.9587C14.0856 31.5349 15.0444 31.5555 16.0336 30.9877C19.7017 28.8815 23.3747 26.784 27.0445 24.6801C27.4992 24.4184 27.8352 24.0855 28.0566 23.6879L14.6401 15.9587Z" fill="#280068"/>
<path d="M28.3774 9.65415C28.3772 9.13618 28.2658 8.67848 28.0405 8.28577L14.6401 15.9588L28.0567 23.6879C28.2717 23.301 28.3786 22.8522 28.3788 22.3455C28.3788 22.3455 28.3788 13.8854 28.3774 9.65415Z" fill="#390091"/>
<path d="M22.5889 13.0689V14.5138H24.0419V13.0689H24.7684V14.5138H26.2214V15.2363H24.7684V16.6812H26.2214V17.4036H24.7684V18.8486H24.0419V17.4036H22.5889V18.8486H21.8624V17.4036H20.4095V16.6812H21.8624V15.2363H20.4095V14.5138H21.8624V13.0689H22.5889ZM24.0419 15.2362H22.5889V16.6812H24.0419V15.2362Z" fill="white"/>
<path d="M14.6697 5.8122C18.4596 5.8122 21.7685 7.85897 23.5408 10.9014L23.5235 10.8721L19.0644 13.4253C18.1859 11.9461 16.5755 10.9478 14.7279 10.9272L14.6696 10.9269C11.8524 10.9269 9.56833 13.1982 9.56833 15.9999C9.5674 16.8829 9.79939 17.7508 10.2411 18.5168C11.1205 20.0434 12.7735 21.073 14.6697 21.073C16.5777 21.073 18.2402 20.0303 19.115 18.4874L19.0937 18.5244L23.5461 21.0894C21.7931 24.106 18.5296 26.1465 14.7838 26.1871L14.6697 26.1878C10.8679 26.1878 7.54969 24.1283 5.78178 21.0699C4.91875 19.5768 4.42496 17.8458 4.42496 15.9999C4.42496 10.3734 9.01156 5.81209 14.6696 5.81209L14.6697 5.8122Z" fill="white"/>
</svg>
