<svg width="183" height="48" viewBox="0 0 183 48" fill="none" xmlns="http://www.w3.org/2000/svg">
<mask id="mask0_60_16794" style="mask-type:luminance" maskUnits="userSpaceOnUse" x="61" y="34" width="39" height="6">
<path d="M61.6479 34.8886H99.3623V39.6207H61.6479V34.8886Z" fill="white"/>
</mask>
<g mask="url(#mask0_60_16794)">
<path d="M61.6479 34.8886H99.3604V39.6207H61.6479V34.8886Z" fill="white"/>
</g>
<mask id="mask1_60_16794" style="mask-type:luminance" maskUnits="userSpaceOnUse" x="104" y="7" width="38" height="6">
<path d="M104.271 7.59694H141.984V12.7202H104.271V7.59694Z" fill="white"/>
</mask>
<g mask="url(#mask1_60_16794)">
<path d="M104.271 7.59694H141.991V12.7202H104.271V7.59694Z" fill="white"/>
</g>
<path d="M16.8285 27.8759H20.7013V21.0902L26.955 8.64122H22.5473L20.4602 13.0885L18.78 16.5834L17.0696 13.0885L14.9524 8.64122H10.5447L16.8285 21.1412V27.8759Z" fill="white"/>
<path d="M42.3545 28.2586C47.6815 28.2586 51.4563 24.1344 51.4563 18.2586C51.4563 12.3742 47.6815 8.25006 42.3545 8.25006C37.02 8.25006 33.2678 12.3742 33.2678 18.2586C33.2678 24.1344 37.02 28.2586 42.3545 28.2586ZM37.2159 18.2586C37.2159 14.7977 39.3332 12.3997 42.3545 12.3997C45.3985 12.3997 47.4856 14.7977 47.4856 18.2586C47.4856 21.7194 45.3985 24.1089 42.3545 24.1089C39.3332 24.1089 37.2159 21.7194 37.2159 18.2586Z" fill="white"/>
<path d="M66.5603 28.2586C70.9906 28.2586 73.6956 25.1293 73.6956 19.9592V8.64122H69.8228V19.6616C69.8228 22.5953 68.7227 24.1089 66.5603 24.1089C64.3903 24.1089 63.2978 22.5953 63.2978 19.6616V8.64122H59.425V19.9592C59.425 25.1293 62.13 28.2586 66.5603 28.2586Z" fill="white"/>
<path d="M82.6543 27.8759H86.5271V21.881H89.0888L92.1328 27.8759H96.6083L93.0822 21.2007C95.124 20.1803 96.322 18.0885 96.322 15.2654C96.322 11.1667 93.8356 8.64122 89.9402 8.64122H82.6543V27.8759ZM86.4819 18.199V12.3742H89.4279C91.3266 12.3742 92.3965 13.4201 92.3965 15.2909C92.3965 17.1616 91.3266 18.199 89.4279 18.199H86.4819Z" fill="white"/>
<path d="M117.323 38.7329C122.952 38.7329 126.576 34.039 126.191 27.4404H116.57V30.8162H122.1C121.61 33.1547 119.855 34.7193 117.376 34.7193C114.257 34.7193 112.26 32.1938 112.26 28.7329C112.26 25.2125 114.332 22.738 117.323 22.738C119.222 22.738 120.804 23.7329 121.633 25.4081H125.8C124.775 21.369 121.392 18.7244 117.248 18.7244C112.064 18.7244 108.387 22.8741 108.387 28.7329C108.387 34.6088 112.087 38.7329 117.323 38.7329Z" fill="white"/>
<path d="M141.266 38.7329C145.696 38.7329 148.401 35.6037 148.401 30.4336V19.1156H144.528V30.136C144.528 33.0696 143.428 34.5832 141.266 34.5832C139.096 34.5832 138.003 33.0696 138.003 30.136V19.1156H134.13V30.4336C134.13 35.6037 136.835 38.7329 141.266 38.7329Z" fill="white"/>
<path d="M161.82 38.3503H165.693V31.5645L171.946 19.1156H167.539L165.452 23.5628L163.771 27.0577L162.061 23.5628L159.944 19.1156H155.536L161.82 31.6156V38.3503Z" fill="white"/>
<mask id="mask2_60_16794" style="mask-type:luminance" maskUnits="userSpaceOnUse" x="100" y="-1" width="5" height="23">
<path d="M100.283 -0.978743H104.819V21.2917H100.283V-0.978743Z" fill="white"/>
</mask>
<g mask="url(#mask2_60_16794)">
<path d="M100.283 21.2917V-0.97237H104.819V21.2917H100.283Z" fill="white"/>
</g>
</svg>
