<svg width="29" height="30" viewBox="0 0 29 30" fill="none" xmlns="http://www.w3.org/2000/svg">
<path d="M14.4869 2.55908C7.55247 2.55908 1.91455 8.197 1.91455 15.1314C1.91455 22.0659 7.55247 27.7038 14.4869 27.7038C21.4214 27.7038 27.0593 22.0659 27.0593 15.1314C27.0593 8.197 21.4214 2.55908 14.4869 2.55908Z" fill="#FC471E"/>
<path fill-rule="evenodd" clip-rule="evenodd" d="M18.0962 8.76399C18.0848 8.83613 18.0789 8.91014 18.0789 8.98557C18.0789 9.74716 18.682 10.3645 19.4259 10.3645C20.1699 10.3645 20.773 9.74716 20.773 8.98557C20.773 8.22398 20.1699 7.6066 19.4259 7.6066C19.0944 7.6066 18.7909 7.72918 18.5562 7.93248L15.0581 7.04919L13.7938 12.2264C12.1118 12.3397 10.5992 12.8611 9.4581 13.6483C9.13411 13.3231 8.69024 13.1225 8.20059 13.1225C7.20866 13.1225 6.40454 13.9457 6.40454 14.9611C6.40454 15.6678 6.79398 16.2813 7.36514 16.5891C7.32387 16.8084 7.30257 17.0322 7.30257 17.2594C7.30257 20.0519 10.519 22.3156 14.4868 22.3156C18.4545 22.3156 21.671 20.0519 21.671 17.2594C21.671 17.0322 21.6497 16.8084 21.6084 16.5891C22.1796 16.2813 22.569 15.6678 22.569 14.9611C22.569 13.9457 21.7649 13.1225 20.773 13.1225C20.2833 13.1225 19.8394 13.3231 19.5155 13.6483C18.2723 12.7907 16.5881 12.2485 14.7244 12.2059L15.7115 8.16403L18.0962 8.76399ZM11.3437 17.7191C12.0876 17.7191 12.6907 17.1017 12.6907 16.3401C12.6907 15.5785 12.0876 14.9611 11.3437 14.9611C10.5997 14.9611 9.99665 15.5785 9.99665 16.3401C9.99665 17.1017 10.5997 17.7191 11.3437 17.7191ZM17.6299 17.7191C18.3738 17.7191 18.9769 17.1017 18.9769 16.3401C18.9769 15.5785 18.3738 14.9611 17.6299 14.9611C16.8859 14.9611 16.2828 15.5785 16.2828 16.3401C16.2828 17.1017 16.8859 17.7191 17.6299 17.7191ZM11.5928 19.1752C11.3864 19.0344 11.1076 19.0915 10.9701 19.3027C10.8325 19.5139 10.8883 19.7993 11.0946 19.9401C12.0717 20.607 13.2793 20.9404 14.4868 20.9404C15.6943 20.9404 16.9018 20.607 17.8789 19.9401C18.0853 19.7993 18.141 19.5139 18.0035 19.3027C17.8659 19.0915 17.5871 19.0344 17.3808 19.1752C16.5545 19.7392 15.5206 20.0211 14.4868 20.0211C13.8737 20.0211 13.2606 19.922 12.6907 19.7236C12.2997 19.5875 11.929 19.4047 11.5928 19.1752Z" fill="white"/>
</svg>
